# xmcd
#
# Track frame offsets: 
#        150
#        16646
#        25559
#        38441
#        51059
#        70081
#        87611
#        101011
#        114410
#        127837
#        137641
#        166922
#        179622
#        193025
#        210559
#        230238
#
# Disc length: 3237 seconds
#
# Revision: 0
# Processed by: cddbd v1.5.1PL2 Copyright (c) Steve Scherf et al.
# Submitted via: ExactAudioCopy v0.95b3
#
DISCID=cd0ca310
DTITLE=Ray Charles - Gold
DYEAR=1900
DGENRE=Blues
TTITLE0=Georgia On My Mind
TTITLE1=Hit The Road Jack
TTITLE2=Unchain My Heart
TTITLE3=I Don't Need No Doctor
TTITLE4=I Can't Stop Loving You
TTITLE5=Ruby
TTITLE6=Let's Get Stoned
TTITLE7=Eleanor Rigby
TTITLE8=You Are My Sunshine
TTITLE9=Busted
TTITLE10=What'd I Say
TTITLE11=My Heart Cries For You
TTITLE12=Crying Time
TTITLE13=Careless Love
TTITLE14=That Lucky Old Sun
TTITLE15=Yesterday
EXTD=
EXTT0=
EXTT1=
EXTT2=
EXTT3=
EXTT4=
EXTT5=
EXTT6=
EXTT7=
EXTT8=
EXTT9=
EXTT10=
EXTT11=
EXTT12=
EXTT13=
EXTT14=
EXTT15=
PLAYORDER=
